<svg xmlns="http://www.w3.org/2000/svg" viewBox="0 0 1200 630"><rect width="1200" height="630" fill="#0b1220"/><g font-family="Arial,Helvetica,sans-serif"><rect x="90" y="120" width="360" height="400" rx="12" fill="#111c33" stroke="#334155" stroke-width="2"/><g fill="#334155"><rect x="120" y="155" width="300" height="16" rx="8"/><rect x="120" y="185" width="260" height="16" rx="8"/><rect x="120" y="255" width="300" height="16" rx="8"/><rect x="120" y="285" width="240" height="16" rx="8"/><rect x="120" y="425" width="300" height="16" rx="8"/><rect x="120" y="455" width="220" height="16" rx="8"/></g><rect x="110" y="340" width="320" height="60" rx="10" fill="#0e2a22" stroke="#6ee7b7" stroke-width="3"/><g fill="#6ee7b7"><rect x="130" y="358" width="270" height="10" rx="5"/><rect x="130" y="376" width="210" height="10" rx="5"/></g><path d="M470 370 L610 300" stroke="#6ee7b7" stroke-width="4" fill="none"/><polygon points="600,290 640,285 615,315" fill="#6ee7b7"/><rect x="650" y="180" width="460" height="240" rx="14" fill="#111c33" stroke="#334155" stroke-width="2"/><text x="685" y="235" fill="#94a3b8" font-size="24">AI answer</text><g fill="#334155"><rect x="685" y="260" width="390" height="14" rx="7"/><rect x="685" y="288" width="360" height="14" rx="7"/></g><rect x="685" y="316" width="390" height="40" rx="8" fill="#0e2a22"/><text x="700" y="343" fill="#6ee7b7" font-size="20">← your passage, quoted</text><text x="685" y="395" fill="#475569" font-size="20">passages compete, not pages</text><text x="90" y="580" fill="#64748b" font-size="22">echorank360.com</text></g></svg>
