<svg viewBox="0 0 1400 600" width="1400" height="600" xmlns="http://www.w3.org/2000/svg" font-family="Geist, system-ui, sans-serif">
  <rect width="1400" height="600" fill="#181A20"/>
  <rect x="70" y="70" width="1260" height="460" rx="16" fill="#1E2329" stroke="#2B3139"/>
  <!-- weekly run ticks along the baseline -->
  <g stroke="#2B3139" stroke-width="1">
    <line x1="130" y1="118" x2="130" y2="470"/><line x1="330" y1="118" x2="330" y2="470"/>
    <line x1="530" y1="118" x2="530" y2="470"/><line x1="730" y1="118" x2="730" y2="470"/>
    <line x1="930" y1="118" x2="930" y2="470"/><line x1="1130" y1="118" x2="1130" y2="470"/>
  </g>
  <line x1="110" y1="470" x2="1270" y2="470" stroke="#2B3139" stroke-width="2"/>
  <g font-family="ui-monospace, SFMono-Regular, Menlo, monospace" font-size="15" fill="#848E9C" letter-spacing="1.4">
    <text x="130" y="500">W1</text><text x="330" y="500">W2</text><text x="530" y="500">W3</text>
    <text x="730" y="500">W4</text><text x="930" y="500">W5</text><text x="1130" y="500">W6</text>
  </g>
  <!-- four measurement bars per run -->
  <g>
    <g fill="#FCD535">
      <rect x="112" y="330" width="18" height="140" rx="3"/><rect x="312" y="316" width="18" height="154" rx="3"/>
      <rect x="512" y="300" width="18" height="170" rx="3"/><rect x="712" y="292" width="18" height="178" rx="3"/>
      <rect x="912" y="262" width="18" height="208" rx="3"/><rect x="1112" y="250" width="18" height="220" rx="3"/>
    </g>
    <g fill="#F0B90B">
      <rect x="134" y="392" width="18" height="78" rx="3"/><rect x="334" y="386" width="18" height="84" rx="3"/>
      <rect x="534" y="374" width="18" height="96" rx="3"/><rect x="734" y="352" width="18" height="118" rx="3"/>
      <rect x="934" y="336" width="18" height="134" rx="3"/><rect x="1134" y="318" width="18" height="152" rx="3"/>
    </g>
    <g fill="#3B4753">
      <rect x="156" y="414" width="18" height="56" rx="3"/><rect x="356" y="410" width="18" height="60" rx="3"/>
      <rect x="556" y="404" width="18" height="66" rx="3"/><rect x="756" y="398" width="18" height="72" rx="3"/>
      <rect x="956" y="390" width="18" height="80" rx="3"/><rect x="1156" y="382" width="18" height="88" rx="3"/>
    </g>
    <g fill="#0ECB81">
      <rect x="178" y="432" width="18" height="38" rx="3"/><rect x="378" y="428" width="18" height="42" rx="3"/>
      <rect x="578" y="424" width="18" height="46" rx="3"/><rect x="778" y="420" width="18" height="50" rx="3"/>
      <rect x="978" y="414" width="18" height="56" rx="3"/><rect x="1178" y="406" width="18" height="64" rx="3"/>
    </g>
  </g>
  <!-- legend -->
  <g font-size="17" fill="#B7BDC6">
    <rect x="112" y="126" width="14" height="14" rx="3" fill="#FCD535"/><text x="136" y="139">Coverage</text>
    <rect x="272" y="126" width="14" height="14" rx="3" fill="#F0B90B"/><text x="296" y="139">Citations</text>
    <rect x="428" y="126" width="14" height="14" rx="3" fill="#3B4753"/><text x="452" y="139">Position</text>
    <rect x="576" y="126" width="14" height="14" rx="3" fill="#0ECB81"/><text x="600" y="139">Framing</text>
  </g>
  <text x="1270" y="139" text-anchor="end" font-family="ui-monospace, SFMono-Regular, Menlo, monospace" font-size="14" fill="#848E9C" letter-spacing="2.2">FROZEN PROMPT SET</text>
</svg>
