<svg viewBox="0 0 680 230" width="680" height="230" xmlns="http://www.w3.org/2000/svg" font-family="Geist, system-ui, sans-serif">
  <defs><marker id="a" viewBox="0 0 10 10" refX="8" refY="5" markerWidth="6" markerHeight="6" orient="auto-start-reverse"><path d="M2 1L8 5L2 9" fill="none" stroke="#eaecef" stroke-width="1.5" stroke-linecap="round" stroke-linejoin="round"/></marker></defs>
  <rect x="0" y="0" width="680" height="230" fill="#14181d"/>
  <rect x="55" y="44" width="180" height="82" rx="8" fill="#1a1f26" stroke="#333a43"/>
  <text x="71" y="64" font-size="11" fill="#9aa4af">La SERP</text>
  <g fill="#4a525c">
    <rect x="71" y="74" width="120" height="4" rx="2"/>
    <rect x="71" y="102" width="130" height="4" rx="2"/>
  </g>
  <rect x="71" y="86" width="140" height="6" rx="3" fill="#f0b90b"/>
  <rect x="55" y="138" width="180" height="50" rx="8" fill="#1a1f26" stroke="#333a43"/>
  <text x="71" y="158" font-size="11" fill="#9aa4af">La réponse IA</text>
  <rect x="71" y="168" width="96" height="6" rx="3" fill="#f0b90b"/>
  <text x="145" y="212" text-anchor="middle" font-size="12" fill="#9aa4af">Deux pages de résultats désormais</text>
  <line x1="244" y1="116" x2="276" y2="116" stroke="#eaecef" stroke-width="1.5" marker-end="url(#a)"/>
  <polygon points="322,82 356,116 322,150 288,116" fill="#eaecef"/>
  <text x="322" y="212" text-anchor="middle" font-size="12" fill="#9aa4af">Un seul plan de travail</text>
  <line x1="364" y1="116" x2="424" y2="116" stroke="#eaecef" stroke-width="1.5" marker-end="url(#a)"/>
  <rect x="434" y="44" width="196" height="144" rx="8" fill="#1a1f26" stroke="#333a43"/>
  <text x="450" y="68" font-size="14" font-weight="500" fill="#eaecef">Suivi quotidien</text>
  <polyline points="450,120 478,112 506,116 534,100 562,104 590,88" fill="none" stroke="#f0b90b" stroke-width="2"/>
  <g fill="#4a525c">
    <rect x="450" y="140" width="120" height="4" rx="2"/>
    <rect x="450" y="156" width="90" height="4" rx="2"/>
    <rect x="450" y="172" width="134" height="4" rx="2"/>
  </g>
  <text x="532" y="212" text-anchor="middle" font-size="12" fill="#9aa4af">Des preuves, pas des opinions</text>
</svg>
