<svg viewBox="0 0 760 360" width="760" height="360" xmlns="http://www.w3.org/2000/svg" font-family="Geist, system-ui, sans-serif">
  <rect x="0" y="0" width="760" height="360" fill="#14181d"/>
  <rect x="60" y="36" width="380" height="292" rx="12" fill="#1a1f26" stroke="#333a43"/>
  <text x="84" y="70" font-size="12" fill="#9aa4af">« best plumber in austin » — la réponse</text>
  <g fill="#4a525c">
    <rect x="84" y="88" width="320" height="5" rx="2"/>
    <rect x="84" y="104" width="290" height="5" rx="2"/>
  </g>
  <rect x="78" y="120" width="336" height="24" rx="6" fill="#f0b90b" opacity=".14"/>
  <rect x="84" y="129" width="180" height="6" rx="3" fill="#f0b90b"/>
  <g fill="#4a525c">
    <rect x="84" y="160" width="310" height="5" rx="2"/>
    <rect x="84" y="176" width="260" height="5" rx="2"/>
    <rect x="84" y="192" width="300" height="5" rx="2"/>
  </g>
  <g font-size="11" fill="#9aa4af">
    <text x="84" y="232">Sources :</text>
  </g>
  <g font-size="11" fill="#eaecef">
    <text x="84" y="252">yelp.com · google.com/maps</text>
    <text x="84" y="272">expertise.com · your-site.com</text>
  </g>
  <rect x="470" y="36" width="230" height="292" rx="12" fill="#1a1f26" stroke="#333a43"/>
  <text x="490" y="70" font-size="12" font-weight="500" fill="#eaecef">Ce qui est enregistré</text>
  <g font-size="12" fill="#9aa4af">
    <text x="490" y="104">Mentionné</text>
    <text x="490" y="140">Position</text>
    <text x="490" y="176">Sentiment</text>
    <text x="490" y="212">Cité comme source</text>
    <text x="490" y="248">Citations derrière</text>
  </g>
  <g font-size="12" font-weight="600">
    <text x="640" y="104" fill="#30a46c">oui</text>
    <text x="640" y="140" fill="#eaecef">#2</text>
    <text x="640" y="176" fill="#30a46c">positif</text>
    <text x="640" y="212" fill="#30a46c">oui</text>
    <text x="640" y="248" fill="#eaecef">4</text>
  </g>
</svg>
