<svg viewBox="0 0 760 400" width="760" height="400" xmlns="http://www.w3.org/2000/svg" font-family="Geist, system-ui, sans-serif">
  <rect x="0" y="0" width="760" height="400" fill="#14181d"/>
  <rect x="60" y="36" width="640" height="332" rx="12" fill="#1a1f26" stroke="#333a43"/>
  <text x="92" y="78" font-size="16" font-weight="600" fill="#eaecef">Keywords Explorer</text>
  <text x="628" y="78" font-size="11" fill="#9aa4af" text-anchor="end">214 / 1 000 recherches utilisées ce mois-ci</text>
  <rect x="92" y="94" width="440" height="42" rx="8" fill="#14181d" stroke="#f0b90b"/>
  <text x="110" y="120" font-size="14" fill="#eaecef">emergency plumber austin</text>
  <rect x="546" y="94" width="122" height="42" rx="8" fill="#f0b90b"/>
  <text x="607" y="120" text-anchor="middle" font-size="13" font-weight="600" fill="#14181d">Étendre</text>
  <g font-size="10" fill="#9aa4af">
    <text x="92" y="166">EXTENSION</text><text x="440" y="166">VOLUME</text><text x="540" y="166">DIFFICULTÉ</text><text x="640" y="166">INTENTION</text>
  </g>
  <g font-size="13" fill="#eaecef">
    <text x="92" y="194">emergency plumber austin tx</text>
    <text x="92" y="226">24 hour plumber austin</text>
    <text x="92" y="258">emergency plumber near me open now</text>
    <text x="92" y="290">burst pipe repair austin</text>
    <text x="92" y="322">weekend plumber austin cost</text>
  </g>
  <g font-size="13" fill="#9aa4af">
    <text x="440" y="194">880</text><text x="540" y="194">34</text>
    <text x="440" y="226">720</text><text x="540" y="226">31</text>
    <text x="440" y="258">590</text><text x="540" y="258">28</text>
    <text x="440" y="290">260</text><text x="540" y="290">19</text>
    <text x="440" y="322">140</text><text x="540" y="322">12</text>
  </g>
  <g font-size="11" fill="#f0b90b">
    <text x="640" y="194">achat</text>
    <text x="640" y="226">achat</text>
    <text x="640" y="258">achat</text>
    <text x="640" y="290">achat</text>
  </g>
  <text x="640" y="322" font-size="11" fill="#9aa4af">curiosité</text>
  <text x="92" y="352" font-size="11" fill="#9aa4af">Amorcé par une vraie phrase client — les extensions restent ancrées au métier.</text>
</svg>
